<?xml version="1.0" encoding="UTF-8"?>
<svg width="596px" height="124px" viewBox="0 0 596 124" version="1.1" xmlns="http://www.w3.org/2000/svg" xmlns:xlink="http://www.w3.org/1999/xlink">
    <title>Group 2</title>
    <g id="Page-1" stroke="none" stroke-width="1" fill="none" fill-rule="evenodd">
        <g id="Artboard" transform="translate(-83, -86)" fill="#FFFFFF">
            <g id="Group-2" transform="translate(83, 86)">
                <g id="Group">
                    <text id="SHOT-FROM-SPACE-Copy-11" font-family="Typestar-OCR, Typestar" font-size="37" font-weight="400" line-spacing="34" letter-spacing="1.3">
                        <tspan x="161" y="56">SHOT</tspan>
                        <tspan x="161" y="91">FROM</tspan>
                        <tspan x="161" y="126">SPACE</tspan>
                    </text>
                    <path d="M125,34 C136.045695,34 145,42.954305 145,54 L145,73 L140,73 L140,49 L131,39 L66,39 L66,34 L125,34 Z" id="Combined-Shape-Copy-8" transform="translate(105.5, 53.5) scale(-1, 1) translate(-105.5, -53.5)"></path>
                    <path d="M59,0 C70.045695,-3.55271368e-15 79,8.954305 79,20 L79,39 L74,39 L74,15 L65,5 L0,5 L0,0 L59,0 Z" id="Combined-Shape-Copy-9" transform="translate(39.5, 19.5) scale(1, -1) translate(-39.5, -19.5)"></path>
                </g>
                <rect id="Rectangle-Copy-4" x="39" y="13" width="7" height="7"></rect>
            </g>
        </g>
    </g>
</svg>